<?xml version="1.0" encoding="utf-8"?>
<svg version="1.1" id="Layer_1" xmlns="http://www.w3.org/2000/svg" xmlns:xlink="http://www.w3.org/1999/xlink" x="0px" y="0px"
	 viewBox="0 0 1892.866 1695.29" enable-background="new 0 0 1892.866 1695.29" xml:space="preserve">
<g>
	<path d="M617.963,1072.911c24.345-58.832,84.003-99.922,145.08-99.922c38.209,0,73.705,15.319,102.649,44.302l52.665,52.667V273.65
		c0-46.787-38.28-85.068-85.068-85.068h0c-46.787,0-85.068,38.28-85.068,85.068v631.273c0,16.766-13.145,30.938-29.905,31.397
		c-17.388,0.477-31.633-13.477-31.633-30.757V132.713c0-46.787-38.28-85.068-85.068-85.068h0c-46.787,0-85.068,38.28-85.068,85.068
		v772.211c0,16.766-13.145,30.938-29.905,31.397c-17.388,0.477-31.633-13.477-31.633-30.757V241.618
		c0-50.253-44.161-90.691-95.592-84.425c-42.771,5.211-74.544,42.244-74.544,85.332v663.039c0,16.993-13.776,30.769-30.769,30.769h0
		c-16.993,0-30.769-13.776-30.769-30.769V583.647c0-43.402-31.601-81.516-74.694-86.691c-51.367-6.169-95.442,34.24-95.442,84.444
		v810.376c0,141.313,114.557,255.87,255.87,255.87h353.419c119.309,0,200.018-67.011,247.649-120.572
		c4.57-5.139,7.114-11.761,7.114-18.638v0c0-7.417-2.946-14.53-8.191-19.774l-257.39-257.4
		C607.71,1187.369,595.101,1128.163,617.963,1072.911z"/>
	<path d="M1744.227,496.956c-43.093,5.175-74.694,43.289-74.694,86.691v321.916c0,16.993-13.776,30.769-30.769,30.769h0
		c-16.993,0-30.769-13.776-30.769-30.769V242.524c0-43.088-31.772-80.121-74.544-85.332c-51.431-6.266-95.592,34.173-95.592,84.425
		v663.306c0,16.766-13.145,30.938-29.905,31.397c-17.388,0.477-31.633-13.477-31.633-30.757V132.713
		c0-46.787-38.281-85.068-85.068-85.068h0c-46.787,0-85.068,38.28-85.068,85.068v772.211c0,16.766-13.145,30.938-29.905,31.397
		c-17.388,0.477-31.633-13.477-31.633-30.757V273.65c0-46.787-38.281-85.068-85.068-85.068h0c-46.787,0-85.068,38.28-85.068,85.068
		v796.88l53.261-53.261c29.314-29.359,64.983-44.887,103.128-44.887c60.274,0,119.379,41.109,143.736,99.969
		c23.119,55.871,10.822,115.286-32.892,158.938l-258.147,258.154c-5.11,5.11-7.98,12.04-7.98,19.267l0,0
		c0,6.7,2.483,13.15,6.932,18.16c47.607,53.595,128.371,120.776,247.831,120.776h353.419c141.313,0,255.87-114.557,255.87-255.87
		V581.4C1839.669,531.196,1795.594,490.787,1744.227,496.956z"/>
	<path d="M1060.074,1049.572l-113.356,113.356l-113.356-113.356c-95.344-95.48-246.98,51.939-149.39,149.39
		c25.881,25.881,233.057,233.057,262.745,262.745c29.688-29.689,236.865-236.865,262.746-262.745
		C1304.944,1103.618,1157.525,951.982,1060.074,1049.572z"/>
</g>
</svg>
